<svg id="visual" viewBox="0 0 1024 540" width="1024" height="540" xmlns="http://www.w3.org/2000/svg" xmlns:xlink="http://www.w3.org/1999/xlink" version="1.1"><rect x="0" y="0" width="1024" height="540" fill="#222628"></rect><path d="M0 412L24.3 407.8C48.7 403.7 97.3 395.3 146.2 391C195 386.7 244 386.3 292.8 397.2C341.7 408 390.3 430 439 428.5C487.7 427 536.3 402 585 401.5C633.7 401 682.3 425 731.2 433.5C780 442 829 435 877.8 428.2C926.7 421.3 975.3 414.7 999.7 411.3L1024 408L1024 541L999.7 541C975.3 541 926.7 541 877.8 541C829 541 780 541 731.2 541C682.3 541 633.7 541 585 541C536.3 541 487.7 541 439 541C390.3 541 341.7 541 292.8 541C244 541 195 541 146.2 541C97.3 541 48.7 541 24.3 541L0 541Z" fill="#1a1b1c" stroke-linecap="round" stroke-linejoin="miter"></path></svg>